<svg width="16" height="15" viewBox="0 0 16 15" fill="none" xmlns="http://www.w3.org/2000/svg">
<path d="M8.00002 2.748L7.28302 2.011C5.60002 0.281003 2.51402 0.878003 1.40002 3.053C0.877017 4.076 0.759017 5.553 1.71402 7.438C2.63402 9.253 4.54802 11.427 8.00002 13.795C11.452 11.427 13.365 9.253 14.286 7.438C15.241 5.552 15.124 4.076 14.6 3.053C13.486 0.878003 10.4 0.280003 8.71702 2.01L8.00002 2.748ZM8.00002 15C-7.33298 4.868 3.27902 -3.04 7.82402 1.143C7.88402 1.198 7.94302 1.255 8.00002 1.314C8.05644 1.25506 8.11515 1.19835 8.17602 1.144C12.72 -3.042 23.333 4.867 8.00002 15Z" fill="black"/>
</svg>
